PathFileType	4	(X/Y/Z)	32_2_5_p0_0-307_filt_butterworth.trc
DataRate	CameraRate	NumFrames	NumMarkers	Units	OrigDataRate	OrigDataStartFrame	OrigNumFrames
59.0	59.0	7	27	m	59.0	268	307
Frame#	Time	RHip			RKnee			RAnkle			RBigToe			RSmallToe			RHeel			LHip			LKnee			LAnkle			LBigToe			LSmallToe			LHeel			Neck			Head			Nose			RShoulder			RElbow			RWrist			RThumb			RIndex			RPinky			LShoulder			LElbow			LWrist			LThumb			LIndex			LPinky			
		X1	Y1	Z1	X2	Y2	Z2	X3	Y3	Z3	X4	Y4	Z4	X5	Y5	Z5	X6	Y6	Z6	X7	Y7	Z7	X8	Y8	Z8	X9	Y9	Z9	X10	Y10	Z10	X11	Y11	Z11	X12	Y12	Z12	X13	Y13	Z13	X14	Y14	Z14	X15	Y15	Z15	X16	Y16	Z16	X17	Y17	Z17	X18	Y18	Z18	X19	Y19	Z19	X20	Y20	Z20	X21	Y21	Z21	X22	Y22	Z22	X23	Y23	Z23	X24	Y24	Z24	X25	Y25	Z25	X26	Y26	Z26	X27	Y27	Z27	
268	4.5423728813559325	0.33100144130981246	0.4542583905309557	1.0597640756240627	0.33238544996489483	0.48578265482151756	1.4898441066465609	0.326637607587066	0.49071309079848197	1.905718358290098	0.3043496315486834	0.31665131884856956	1.9116433173821434	0.375332915828398	0.3274562961439959	1.9011509585358382	0.3034902500182677	0.5915985939983122	2.016937008804522	0.12257561678756548	0.49245878845764246	1.07136850649567	0.1254934474236935	0.5101311365454316	1.502798150512579	0.13751180451927378	0.509311674734396	1.9455579831125684	0.15247332314952028	0.3267910116143518	1.9168779727830916	0.10286028243319213	0.3812714715692145	1.9377169719154583	0.15848590679536195	0.5378079241153556	1.9843002033850035	0.23471070782247536	0.46950169080992976	0.4706108253026184	0.23519152555676262	0.44778434186837435	0.24668455420414828	0.22145824928437546	0.3690745172754629	0.34002620376570813	0.38331299553713355	0.4637111225352428	0.5473380452789331	0.46970210466737305	0.403553039090192	0.7363430504616687	0.36460740128363006	0.1548339771293721	0.7363642000609799	0.30062980085581786	0.0653718292007902	0.709733235058044	0.3018284412871227	0.039188759998017936	0.7236023051089787	0.3019108292172375	0.08343820589087889	0.7646635025303461	0.07146222469346672	0.46477081449313395	0.5578677257840586	0.02992433603308592	0.37240333371610035	0.7714114053551445	0.0967278663019509	0.18466310037625586	0.6798939575524623	0.13209512719821148	0.14394291560618783	0.6056410260257047	0.11761181413483884	0.09563814048670649	0.6040792926777777	0.1286223329354012	0.09718778019204127	0.6611212134224155
269	4.559322033898305	0.33202740444046785	0.45238020592315836	1.0608409043589644	0.33128768596061964	0.496447910661127	1.4960812662372578	0.32749614706697894	0.4957543820758771	1.9093675818056477	0.30860662515458004	0.31758630392059617	1.913842152791024	0.3768712187338352	0.32998771646504194	1.9040961532440082	0.30364469745291517	0.5987519740657055	2.018703983687912	0.12327351080946568	0.49043272459014986	1.0708844630808687	0.12524850789522624	0.5108900144091197	1.504711062201735	0.13818046745895052	0.5099890826602856	1.947408388991342	0.1521510178233725	0.32697923134002893	1.918433504795378	0.10312188232318717	0.3811749212587696	1.938558340671851	0.15834886062541506	0.5387935805879019	1.9825990752283125	0.23580171930605415	0.46996464002625427	0.4712632629553394	0.23424011058503857	0.4439793841327683	0.24632237155733455	0.22002233600927107	0.3686674230689913	0.34018092151977714	0.3832053089008092	0.4626771296691928	0.5497231690755511	0.46181397880611114	0.39253935108091	0.7381547037746183	0.3562460867050368	0.1548535064605036	0.7703248780259311	0.29099745581010034	0.07338719534028795	0.7689610986251663	0.2918237893988687	0.04914658533339512	0.7790064477220998	0.30194294940194644	0.08232798875270833	0.8121366635606811	0.0715871045365303	0.4641078142340197	0.5580553643721596	0.03590719232072024	0.389092508515282	0.7732453540572672	0.10543284002922772	0.17769186135311824	0.692949170478414	0.14325077156634078	0.1381451851978941	0.6336948719271978	0.134447673047708	0.09199675069535104	0.6334108820568259	0.14298890590393593	0.08870633610805877	0.6866916826715214
270	4.576271186440678	0.3336012589578433	0.4533660537481956	1.0606228059082365	0.32948809000259827	0.5027755595811038	1.5006976582212073	0.32768798583815395	0.4976466952953568	1.9107005484943276	0.3108648808966766	0.31712118093314823	1.9128585198941674	0.37744468645200135	0.33018157401466336	1.9058286598887966	0.3039161422665538	0.6006456742308295	2.02008889062445	0.12385398230962677	0.48953894083958643	1.0693772755590056	0.1248961381279173	0.5115651152661257	1.505268510803744	0.13962609711780027	0.5108245431684946	1.9478886523848187	0.1518492750853588	0.327277246508954	1.919679583268677	0.10389370293025108	0.38047113307447855	1.939363301977182	0.15831484950073377	0.5394009501474317	1.981524060019471	0.23616624713742868	0.47031263135352497	0.4723915249640728	0.23406089212910183	0.44113371761069264	0.24629715315460082	0.21900857947616748	0.36830377557009797	0.3403412092169229	0.38311679456655445	0.4585401346593651	0.5532112790086918	0.45143837207258164	0.3756065024534055	0.7440324956141656	0.34505959561365146	0.15586826864112016	0.8066183884216748	0.2758464848708116	0.08839062206792685	0.8325694722969699	0.2784346171208802	0.06754147412025976	0.8372922012246243	0.3021003315264687	0.08272050142409704	0.8630907594046349	0.07235917779302362	0.46261523277877825	0.5573308725109704	0.04049478245675461	0.3969093424994593	0.7719771017330346	0.11630665709923664	0.1711535743415024	0.7092108209905797	0.15938956680150437	0.13577702192646582	0.6657891049500011	0.15439774756282368	0.0896304387556051	0.6656821506106644	0.15770200370769105	0.08364917160188204	0.7131869800525188
271	4.593220338983051	0.33463147838435814	0.4596521958625781	1.0601394056590112	0.32811234301947517	0.5046174565428622	1.5022392312896657	0.3279209509542544	0.4989631363071758	1.9108728258166896	0.3106045508747201	0.3158427324131181	1.9110384599648917	0.3775367953657023	0.32919845112405655	1.9063916750663128	0.3045269600351403	0.600379410310835	2.020502351699455	0.12494327609715494	0.49158187360425726	1.067592283314342	0.12452177226825666	0.5118335151516423	1.5035758563650221	0.14107722314752189	0.511339408715797	1.9474332016298082	0.15168358815711933	0.3277214861406488	1.920422300840674	0.10437062572803661	0.3785169705604112	1.9395922846243585	0.15831601435193515	0.5393030065113986	1.9811206053763755	0.2360973457275735	0.4703216612431815	0.4737385568368723	0.2340566247286136	0.44015171202922676	0.24658180410549865	0.21858996515745793	0.3678342134235099	0.3404019163665032	0.3831862369170813	0.4525419395288007	0.5572107033806627	0.4430091359509412	0.36145631431945935	0.7547719957689434	0.3318161566951675	0.15829491105365626	0.845076747469824	0.2565265962330487	0.10705299104599174	0.8921670384575769	0.26181828478626057	0.08955083203735102	0.8951705478592304	0.2963619727844456	0.0883454312949729	0.9144368846584321	0.07379225741641882	0.45984514955275707	0.5569901521753629	0.04267110978556437	0.397490503281766	0.7696890317876359	0.12794801676388812	0.1689959199330368	0.7304848540602777	0.17972654094937968	0.13604198478927576	0.7024720837996495	0.1741830929966483	0.08644480311824103	0.6996653112065668	0.17260898845237102	0.08170285223993874	0.7436766533393177
272	4.610169491525424	0.3347972447059409	0.46917618382614834	1.0598456641716543	0.32754868166790224	0.5046435090088746	1.501669656255436	0.32867567750126503	0.5017414400405658	1.9111173136143123	0.3089055805252819	0.3147626005063392	1.9099633679727892	0.37740240092794924	0.3285680738184778	1.9065343229751732	0.30517791132405947	0.5998338967270652	2.0190136690033076	0.127220014504468	0.4972853863905312	1.0677841318933556	0.12421121528298196	0.5118146480023649	1.5001848543483582	0.1418730117710899	0.5114163337034215	1.9469376975855048	0.15175997255181822	0.3278203837565659	1.9205584557796695	0.10386655857462548	0.3749595208906769	1.9394625023857646	0.15829734965656464	0.5385215316510563	1.9813219831193503	0.23592705723999496	0.4702591440221011	0.4750741156119925	0.2333950091861358	0.4411443132139018	0.24703616623697786	0.21851335889281792	0.3674537103237734	0.34040601440719953	0.38325258080095415	0.44772612206387064	0.5611784675629812	0.43718709561899544	0.3540423457412	0.770704084014308	0.31765829087017317	0.16770089529089086	0.8850221476774517	0.2380215924279736	0.12627194397439453	0.9416557694595642	0.24456121168825784	0.11193728525857695	0.9477045813170559	0.28126391885101476	0.1033436981307965	0.9621216989238541	0.07511859308896932	0.4566959865966669	0.5579168990792084	0.04366393286458483	0.3958149535423927	0.7685168844758775	0.14246105651549407	0.16901177738191686	0.7537930370480662	0.20265700729057898	0.1338084401896168	0.7419315871384786	0.19466516062447797	0.08132843282035845	0.7353152271537378	0.189186901623401	0.08138225531459183	0.7789362551351111
273	4.627118644067797	0.33480295242253577	0.4773077500903894	1.060451372085235	0.32769514102099273	0.5047961061705843	1.5006229555681898	0.32977473274990077	0.5057090051352976	1.9120897226266793	0.3070058739125369	0.31548037430748993	1.9105538100093902	0.3768412086769765	0.3297293641171704	1.9075164074476354	0.30554649022982755	0.5996136184621517	2.0167282938272812	0.13058487039256103	0.5051223755070042	1.0717207764936467	0.12407353744135792	0.5118026801802439	1.4969870370639293	0.1420895894847471	0.5113060239418147	1.9467888786695384	0.15230112400605633	0.32621355650769723	1.9193995018872205	0.10334943056837223	0.3706359706838281	1.9391500072396282	0.15833658740256798	0.5376664011977556	1.9823503425629123	0.2357941695710654	0.47027300122410165	0.4764059899831815	0.23164401170273607	0.4439570076791207	0.24754101565539716	0.21860447439037523	0.3672683892557229	0.340379915326813	0.3829529359396321	0.44659055437737616	0.5651496136618592	0.43211422619728845	0.3527834108187942	0.7892095393970342	0.3037855781401267	0.18650352065867715	0.9212964919728166	0.22337338380200614	0.14418886408904596	0.9796234663914218	0.22894561996781146	0.1331893659652264	0.9899714341810606	0.2592430124037914	0.12684367693313445	1.0013695259149076	0.07546095248242993	0.4541212518070022	0.5598154896562528	0.04662583953611013	0.39422705179549544	0.7713529198583966	0.16122600915171348	0.16586522920161303	0.7774029385863765	0.22540312464260465	0.12244915650905161	0.7813227465728645	0.2168396361515258	0.07430184750664508	0.7752477394628069	0.20875107362787432	0.08246575388906693	0.8187491460925924
274	4.6440677966101696	0.3348238316105236	0.48150491052352423	1.0629230333365434	0.32842447940914643	0.5047554987452365	1.5001721881502765	0.33067984415194	0.5089489450346611	1.9135545579377091	0.30525828791561377	0.3189780608455218	1.9131438682647273	0.375554311139444	0.3335744286266594	1.9101323531303689	0.3056011300517851	0.5997842439898234	2.0156716692803993	0.13402608544616593	0.5118860991143517	1.078186095142	0.12412426048786177	0.5121109518763095	1.4962318734766535	0.1421037701489057	0.5112742935518532	1.9469629173964123	0.15336781924737847	0.3216231999042727	1.916033333843117	0.10411742996622705	0.3672859704580082	1.9379679231220748	0.15866286430379473	0.5381162605723678	1.984499272015351	0.235826247813329	0.4700747357211331	0.47770530242797116	0.22932131569352115	0.44754613539431604	0.24801080063610512	0.21905432435395167	0.3673627196044128	0.34036695973054476	0.3820452513864337	0.44951865482331577	0.5693453283539295	0.4261883996548587	0.35624261131994356	0.8050645929827828	0.2925209087764538	0.20972318376322263	0.9477201344588662	0.212045122809374	0.16296276987431285	1.0067184409102259	0.2152345258013287	0.15620178457160205	1.0201727323702234	0.23648980731131025	0.1557970471012389	1.0301887058958856	0.0750151106313667	0.4509464373328596	0.5618931960598053	0.05455813125894508	0.3916078248517279	0.7807809651184299	0.18247532028651353	0.15835740615158922	0.8045020736017835	0.24530177508703377	0.10172919981981088	0.8223224787660963	0.23869366654934207	0.06697290672609754	0.8228920048456326	0.23052686993285948	0.08636562144072497	0.862961264721138
